<svg xmlns="http://www.w3.org/2000/svg" viewBox="0 0 100 100" id="icon"><path d="M96.844 94.273 62.656 35.07a1.363 1.363 0 0 1-.18-.672V11.261a1.34 1.34 0 0 1 1.34-1.336 4.433 4.433 0 1 0 0-8.867H36.183a4.433 4.433 0 1 0 0 8.867c.738 0 1.34.598 1.34 1.336v23.137c0 .234-.063.465-.18.668L3.155 94.273a3.12 3.12 0 0 0 .012 3.113 3.134 3.134 0 0 0 2.691 1.563H94.14a3.134 3.134 0 0 0 2.692-1.563 3.12 3.12 0 0 0 .011-3.113zM80.543 79.878a1.346 1.346 0 0 1-2.453.32L59.746 48.421a1.321 1.321 0 0 1-.137-1.015c.149-.516.59-.899 1.121-.965.535-.07 1.055.18 1.332.64L80.41 78.862c.18.31.227.672.133 1.016z"/></svg>