<svg xmlns="http://www.w3.org/2000/svg" viewBox="0 0 100 100" id="icon"><path d="M84.617 11.539h-3.848V7.691C80.77 3.234 77.535 0 73.078 0H15.383c-4.457 0-7.691 3.234-7.691 7.69v73.08c0 4.457 3.234 7.692 7.69 7.692h3.849v3.847c0 4.457 3.234 7.692 7.691 7.692h57.691c4.457 0 7.691-3.235 7.691-7.692l.004-73.078c0-4.457-3.234-7.691-7.691-7.691zm-61.539 69.23h-7.695V7.691h57.69v73.078zm61.539 11.539H26.922V88.46h46.152c4.457 0 7.691-3.234 7.691-7.691l.004-61.54h3.848zM49.23 61.538a5 5 0 1 1-10 0 5 5 0 0 1 10 0zm10.387-30.387c0 11.539-11.539 10-11.539 18.848H40c0-11.152 9.617-11.922 9.617-17.691 0-3.46-2.308-5.77-5.383-5.77-3.847 0-6.539 1.54-6.539 7.692h-8.847c0-10.383 7.69-15.77 15.383-15.77 9.23 0 15.387 5 15.387 12.69z"/></svg>