<svg xmlns="http://www.w3.org/2000/svg" viewBox="0 0 100 100" id="icon"><path d="M85.742 39.125a.974.974 0 0 0-1.633 0L74.023 54.5a.978.978 0 0 0 .817 1.512h8.773a35.55 35.55 0 0 1-12.137 22.324c-6.25 5.36-14.102 8.433-21.547 8.433-4.856 0-9.93-1.308-14.676-3.78a36.37 36.37 0 0 1-12.492-10.72.975.975 0 1 0-1.574 1.152 38.406 38.406 0 0 0 13.168 11.293c5.023 2.622 10.41 4.004 15.578 4.004 7.902 0 16.219-3.246 22.816-8.902A37.512 37.512 0 0 0 85.58 56.007h9.43a.976.976 0 0 0 .816-1.512L85.74 39.12zM26.016 44.5a.976.976 0 0 0-.86-.512h-8.773A35.55 35.55 0 0 1 28.52 21.664c6.25-5.36 14.102-8.433 21.547-8.433 4.856 0 9.93 1.308 14.676 3.78a36.37 36.37 0 0 1 12.492 10.72.975.975 0 1 0 1.574-1.152 38.406 38.406 0 0 0-13.168-11.293c-5.023-2.622-10.41-4.004-15.578-4.004-7.902 0-16.219 3.246-22.816 8.902a37.512 37.512 0 0 0-12.832 23.809l-9.425-.004a.976.976 0 0 0-.817 1.512L14.26 60.876c.18.273.489.441.817.441s.636-.164.816-.441L25.978 45.5a.978.978 0 0 0 .043-1z"/><path d="M60.867 40.137C60.867 46.141 56 51.004 50 51.004s-10.867-4.863-10.867-10.867c0-6 4.867-10.863 10.867-10.863s10.867 4.863 10.867 10.863m-28 17.855a16.126 16.126 0 0 0-3.57 10.082v1.676c0 .539.437.976.976.976h39.45a.977.977 0 0 0 .976-.976v-1.676c0-3.648-1.254-7.227-3.531-10.078-2.246-2.813-5.387-4.809-8.844-5.621a.992.992 0 0 0-.79.152 12.91 12.91 0 0 1-7.48 2.39c-2.683 0-5.27-.827-7.48-2.39a.968.968 0 0 0-.785-.152 16.272 16.272 0 0 0-8.918 5.617z"/></svg>