<svg xmlns="http://www.w3.org/2000/svg" viewBox="0 0 32 32" id="icon"><path d="M16 4a12 12 0 1 0 12 12A12.013 12.013 0 0 0 16 4Zm-4 10.186V12a4 4 0 0 1 8 0v2.186a.675.675 0 0 1 .184.763l-.368 1.102a1.491 1.491 0 0 1-.932.88l-.165 1.317A2 2 0 0 1 16.734 20h-1.468a2 2 0 0 1-1.985-1.752l-.165-1.317a1.491 1.491 0 0 1-.932-.88l-.368-1.102a.675.675 0 0 1 .184-.763ZM16 25a8.978 8.978 0 0 1-6.851-3.178 1.987 1.987 0 0 1 .704-.92l1.787-1.25A3.996 3.996 0 0 0 15.266 22h1.468a3.996 3.996 0 0 0 3.626-2.348l1.787 1.25a1.986 1.986 0 0 1 .704.92A8.978 8.978 0 0 1 16 25Z"></path></svg>